# xmcd
# 
# Track frame offsets:
#     150
#     15801
#     29494
#     47529
#     67433
#     84656
#     103792
#     121375
#     136964
#     157227
#     174880
#     189760
# 
# Disc length: 2775
# 
# Revision: 3
# Processed by: cddbd v1.5.2PL0 Copyright (c) Steve Scherf et al.
# Submitted via: fre:ac v1.0.31
# 
DISCID=9a0ad50c
DTITLE=Steel Magnolia - Steel Magnolia
DYEAR=2011
DGENRE=Country
TTITLE0=Ooh La La
TTITLE1=Keep On Lovin' You
TTITLE2=Just By Being You
TTITLE3=Edge Of Goodbye
TTITLE4=Bulletproof
TTITLE5=Not Tonight
TTITLE6=Last Night Again
TTITLE7=Without You
TTITLE8=Rainbow
TTITLE9=Eggs Over Easy
TTITLE10=Homespun Love
TTITLE11=Glass Houses
EXTD=
EXTT0=
EXTT1=
EXTT2=
EXTT3=
EXTT4=
EXTT5=
EXTT6=
EXTT7=
EXTT8=
EXTT9=
EXTT10=
EXTT11=
PLAYORDER=
